<svg id="Calque_1" data-name="Calque 1" xmlns="http://www.w3.org/2000/svg" xmlns:xlink="http://www.w3.org/1999/xlink" viewBox="0 0 254 108"><defs><style>.cls-1{fill:url(#Dégradé_sans_nom_33);}</style><linearGradient id="Dégradé_sans_nom_33" x1="79.78" y1="82.39" x2="79.78" y2="-21.26" gradientTransform="translate(-42.68 25) rotate(-1)" gradientUnits="userSpaceOnUse"><stop offset="0" stop-color="#ffe167"/><stop offset="0.59" stop-color="#fed963"/><stop offset="1" stop-color="#fdd05e"/></linearGradient></defs><path class="cls-1" d="M8.1,51a14.23,14.23,0,1,0,25,1.41h0L32.86,52l0,0A35.59,35.59,0,0,1,56.21,2a35.57,35.57,0,0,0,5.93,42.35v0l.47.47.5.46A35.61,35.61,0,0,1,69,87.66L71.4,96l2.69,9.4L64.61,103l-8.38-2.09a35.6,35.6,0,0,1-35.57.62c-.9-.5-1.78-1-2.65-1.62A35.55,35.55,0,0,1,8.1,51ZM55.66,91.24A4.36,4.36,0,1,0,51.22,87,4.35,4.35,0,0,0,55.66,91.24Zm-16.58.29a4.36,4.36,0,1,0-4.44-4.29A4.37,4.37,0,0,0,39.08,91.53Zm-16.58.29a4.37,4.37,0,1,0-4.44-4.29A4.37,4.37,0,0,0,22.5,91.82Z"/><path d="M116.84,40.13a28.55,28.55,0,0,1,9.78,1.46A15.55,15.55,0,0,1,133,45.65,15.32,15.32,0,0,1,136.36,52a30.9,30.9,0,0,1,1,8.18V90.89q-2.72.57-8.19,1.4a83.43,83.43,0,0,1-12.35.82,37.18,37.18,0,0,1-8.33-.87,17.37,17.37,0,0,1-6.44-2.81,13.21,13.21,0,0,1-4.16-5,17.37,17.37,0,0,1-1.51-7.66,14.81,14.81,0,0,1,1.7-7.36,13.9,13.9,0,0,1,4.6-4.89,19.94,19.94,0,0,1,6.73-2.71,37.85,37.85,0,0,1,8-.82,36.44,36.44,0,0,1,4.07.24A39,39,0,0,1,126,62V60.09a15.33,15.33,0,0,0-.48-3.88,7.89,7.89,0,0,0-1.7-3.24,7.79,7.79,0,0,0-3.19-2.18,13.79,13.79,0,0,0-5-.78,45.11,45.11,0,0,0-7.46.58A32.64,32.64,0,0,0,102.7,52l-1.45-9.49a44.3,44.3,0,0,1,6.49-1.55A50.49,50.49,0,0,1,116.84,40.13Zm1,43.68a43.33,43.33,0,0,0,8.23-.58v-13a22.18,22.18,0,0,0-2.81-.59,26.53,26.53,0,0,0-4.06-.29,27.67,27.67,0,0,0-3.93.29,12.37,12.37,0,0,0-3.58,1.07,6.51,6.51,0,0,0-2.57,2.18,6.12,6.12,0,0,0-1,3.53c0,2.78.88,4.7,2.62,5.77A13.54,13.54,0,0,0,117.81,83.81Z"/><path d="M152.19,43A77.27,77.27,0,0,1,161,41.2a76.09,76.09,0,0,1,12-.87A27.59,27.59,0,0,1,183.38,42,16.14,16.14,0,0,1,190,46.77a18.09,18.09,0,0,1,3.48,7.36,41,41,0,0,1,1,9.44V92.05H182.8V65.41a38.88,38.88,0,0,0-.53-6.92,12.42,12.42,0,0,0-1.74-4.65,7,7,0,0,0-3.3-2.62,13.83,13.83,0,0,0-5.08-.82,39.74,39.74,0,0,0-4.65.29c-1.62.19-2.81.36-3.59.48V92.05H152.19Z"/><path d="M209.34,92.05V18.82l11.72-1.93V42a31.13,31.13,0,0,1,4.5-1.16,27.65,27.65,0,0,1,5.09-.48A26.18,26.18,0,0,1,240.77,42a15.85,15.85,0,0,1,6.44,4.75,18.41,18.41,0,0,1,3.44,7.31,40.85,40.85,0,0,1,1,9.49V92.05H240V65.41a37.87,37.87,0,0,0-.54-6.92,12.08,12.08,0,0,0-1.74-4.65,7,7,0,0,0-3.24-2.62,13.5,13.5,0,0,0-5-.82,24.46,24.46,0,0,0-4.75.48,33.23,33.23,0,0,0-3.58.88V92.05Z"/></svg>