<svg id="Calque_1" data-name="Calque 1" xmlns="http://www.w3.org/2000/svg" xmlns:xlink="http://www.w3.org/1999/xlink" viewBox="0 0 245 108"><defs><style>.cls-1{fill:url(#Dégradé_sans_nom_33);}.cls-2{fill:#ffe167;}</style><linearGradient id="Dégradé_sans_nom_33" x1="79.72" y1="89.29" x2="79.72" y2="-14.36" gradientTransform="translate(-42.74 18.1) rotate(-1)" gradientUnits="userSpaceOnUse"><stop offset="0" stop-color="#ffe167"/><stop offset="0.59" stop-color="#fed963"/><stop offset="1" stop-color="#fdd05e"/></linearGradient></defs><path class="cls-1" d="M8.1,51a14.23,14.23,0,1,0,25,1.41h0L32.86,52l0,0A35.59,35.59,0,0,1,56.21,2a35.57,35.57,0,0,0,5.93,42.35v0l.47.47.5.46A35.61,35.61,0,0,1,69,87.66L71.4,96l2.69,9.4L64.61,103l-8.38-2.09a35.6,35.6,0,0,1-35.57.62c-.9-.5-1.78-1-2.65-1.62A35.55,35.55,0,0,1,8.1,51ZM55.66,91.24A4.36,4.36,0,1,0,51.22,87,4.35,4.35,0,0,0,55.66,91.24Zm-16.58.29a4.36,4.36,0,1,0-4.44-4.29A4.37,4.37,0,0,0,39.08,91.53Zm-16.58.29a4.37,4.37,0,1,0-4.44-4.29A4.37,4.37,0,0,0,22.5,91.82Z"/><path class="cls-2" d="M107.84,53a28.57,28.57,0,0,1,9.78,1.45A15.56,15.56,0,0,1,124,58.53a15.28,15.28,0,0,1,3.39,6.34,31,31,0,0,1,1,8.19v30.7q-2.72.58-8.19,1.4a83.34,83.34,0,0,1-12.35.83,37.18,37.18,0,0,1-8.33-.87,17.7,17.7,0,0,1-6.44-2.81,13.17,13.17,0,0,1-4.16-5,17.36,17.36,0,0,1-1.51-7.65,14.75,14.75,0,0,1,1.7-7.36,13.9,13.9,0,0,1,4.6-4.89,20,20,0,0,1,6.73-2.72,38.52,38.52,0,0,1,8-.82,36.44,36.44,0,0,1,4.07.24,37.09,37.09,0,0,1,4.55.83V73a15.33,15.33,0,0,0-.48-3.88,8,8,0,0,0-1.7-3.24,7.88,7.88,0,0,0-3.19-2.18,13.81,13.81,0,0,0-5-.77,44,44,0,0,0-7.46.58,32.74,32.74,0,0,0-5.52,1.35l-1.45-9.49a45.65,45.65,0,0,1,6.49-1.55A51.44,51.44,0,0,1,107.84,53Zm1,43.68a43.33,43.33,0,0,0,8.23-.58v-13a22.51,22.51,0,0,0-2.81-.58,25.32,25.32,0,0,0-4.06-.29,26.28,26.28,0,0,0-3.93.29,12.36,12.36,0,0,0-3.58,1.06,6.59,6.59,0,0,0-2.57,2.18,6.15,6.15,0,0,0-1,3.54c0,2.77.88,4.7,2.62,5.76A13.44,13.44,0,0,0,108.81,96.69Z"/><path class="cls-2" d="M143.19,55.91A79.52,79.52,0,0,1,152,54.07a76.09,76.09,0,0,1,12-.87,27.79,27.79,0,0,1,10.36,1.69A16.32,16.32,0,0,1,181,59.64,18.15,18.15,0,0,1,184.5,67a41,41,0,0,1,1,9.45v28.47H173.8V78.29a39,39,0,0,0-.53-6.93,12.55,12.55,0,0,0-1.74-4.65,7,7,0,0,0-3.3-2.61,13.82,13.82,0,0,0-5.08-.83,39.74,39.74,0,0,0-4.65.29c-1.62.2-2.81.36-3.59.49v40.87H143.19Z"/><path class="cls-2" d="M200.34,104.92V31.7l11.72-1.94V54.85a32.41,32.41,0,0,1,4.5-1.17,27.65,27.65,0,0,1,5.09-.48,26.37,26.37,0,0,1,10.12,1.69,16,16,0,0,1,6.44,4.75A18.47,18.47,0,0,1,241.65,67a40.94,40.94,0,0,1,1,9.5v28.47H231V78.29a38,38,0,0,0-.54-6.93,12.21,12.21,0,0,0-1.74-4.65,7,7,0,0,0-3.24-2.61,13.49,13.49,0,0,0-5-.83,23.73,23.73,0,0,0-4.75.49,31.41,31.41,0,0,0-3.58.87v40.29Z"/></svg>