<svg id="Calque_1" data-name="Calque 1" xmlns="http://www.w3.org/2000/svg" viewBox="0 0 108 108"><defs><style>.cls-1{fill:#fff;}</style></defs><path class="cls-1" d="M70.49,50.19a7,7,0,1,1-12.27.91h0c0-.08.07-.15.1-.22h0A17.51,17.51,0,0,0,46.41,26.5a17.5,17.5,0,0,1-2.55,20.89h0l-.23.24a2.61,2.61,0,0,1-.24.23A17.55,17.55,0,0,0,38.51,60.6a17.31,17.31,0,0,0,2.34,8.14l-1.1,4.11L38.5,77.5l4.65-1.25,4.1-1.1a17.5,17.5,0,0,0,17.5,0c.44-.25.87-.53,1.29-.82a17.48,17.48,0,0,0,4.45-24.14Zm-23,20.2a2.15,2.15,0,1,1,2.14-2.15A2.15,2.15,0,0,1,47.45,70.39Zm8.15,0a2.15,2.15,0,1,1,2.15-2.15A2.14,2.14,0,0,1,55.6,70.39Zm8.16,0a2.15,2.15,0,1,1,2.15-2.15A2.15,2.15,0,0,1,63.76,70.39Z"/></svg>