<svg id="Calque_1" data-name="Calque 1" xmlns="http://www.w3.org/2000/svg" xmlns:xlink="http://www.w3.org/1999/xlink" viewBox="0 0 108 108"><defs><style>.cls-1{fill:url(#Dégradé_sans_nom_33);}</style><linearGradient id="Dégradé_sans_nom_33" x1="95.52" y1="87.29" x2="95.52" y2="-16.36" gradientTransform="translate(-42.72 20.37) rotate(-1)" gradientUnits="userSpaceOnUse"><stop offset="0" stop-color="#ffe167"/><stop offset="0.59" stop-color="#fed963"/><stop offset="1" stop-color="#fdd05e"/></linearGradient></defs><path class="cls-1" d="M23.89,51a14.23,14.23,0,1,0,25,1.41h0a4.66,4.66,0,0,0-.22-.45s0,0,0,0A35.57,35.57,0,0,1,72,2a35.55,35.55,0,0,0,5.92,42.35l0,0,.47.47.5.46A35.62,35.62,0,0,1,89.26,71,35.26,35.26,0,0,1,84.8,87.66L87.19,96l2.69,9.4L80.4,103,72,100.91a35.58,35.58,0,0,1-35.56.62c-.9-.5-1.79-1-2.65-1.62A35.53,35.53,0,0,1,23.89,51ZM71.45,91.24A4.36,4.36,0,1,0,67,87,4.36,4.36,0,0,0,71.45,91.24Zm-16.58.29a4.36,4.36,0,1,0-4.44-4.29A4.36,4.36,0,0,0,54.87,91.53Zm-16.58.29a4.37,4.37,0,1,0-4.44-4.29A4.37,4.37,0,0,0,38.29,91.82Z"/></svg>